<svg width="142" height="190" viewBox="0 0 142 190" fill="none" xmlns="http://www.w3.org/2000/svg">
<path d="M47.2549 120.312V143.112C47.2549 146.708 46.1345 149.127 43.9098 150.398C41.6694 151.67 38.987 151.403 35.8472 149.598L15.8727 138.119C12.7329 136.313 10.0509 133.487 7.81041 129.655C5.56997 125.824 4.46533 122.103 4.46533 118.522V95.7224C4.46533 92.1265 5.56997 89.7083 7.81041 88.4364L8.52033 88.091C10.603 87.2431 13.0642 87.6199 15.8727 89.2373L35.8472 100.716C35.8472 100.716 35.9578 100.779 36.0209 100.826C39.0818 102.631 41.7167 105.427 43.9098 109.179C46.1345 113.011 47.2549 116.717 47.2549 120.312Z" fill="#D9D9D9" fill-opacity="0.5" stroke="#7C7EFF" stroke-opacity="0.5"/>
<path d="M107.178 154.732V177.548C107.178 181.128 106.058 183.562 103.817 184.818C101.593 186.09 98.895 185.823 95.7552 184.017L75.7804 172.539C72.6564 170.733 69.9585 167.922 67.7339 164.091C65.4934 160.244 64.373 156.538 64.373 152.958V130.142C64.373 126.562 65.4934 124.128 67.7339 122.872L68.4439 122.527C70.5265 121.679 72.9719 122.055 75.7804 123.673L78.81 125.416L95.7552 135.151C95.7552 135.151 95.8655 135.214 95.9286 135.261C98.9895 137.051 101.64 139.846 103.817 143.599C106.058 147.446 107.178 151.152 107.178 154.732Z" fill="#D9D9D9" fill-opacity="0.5" stroke="#7C7EFF" stroke-opacity="0.5"/>
<path d="M47.2549 51.881V74.6967C47.2549 78.2769 46.1345 80.6951 43.9098 81.967C41.7167 83.2075 39.0818 82.9876 36.0209 81.2603C35.9578 81.2289 35.9103 81.1975 35.8472 81.1661L29.615 77.586L15.8727 69.6876C12.7329 67.8818 10.0509 65.0711 7.81041 61.224C5.56997 57.3926 4.46533 53.6868 4.46533 50.1066V27.2909C4.46533 23.7108 5.56997 21.2769 7.81041 20.0207L8.52033 19.6752C10.603 18.8273 13.0642 19.2041 15.8727 20.8215L35.8472 32.2843C35.8472 32.2843 35.9578 32.3471 36.0209 32.3942C39.0818 34.2 41.7167 36.9951 43.9098 40.7479C46.1345 44.5951 47.2549 48.3008 47.2549 51.881Z" fill="#D9D9D9" fill-opacity="0.5" stroke="#7C7EFF" stroke-opacity="0.5"/>
<path d="M107.178 86.3166V109.117C107.178 112.697 106.058 115.131 103.817 116.403C101.64 117.627 98.9895 117.408 95.9286 115.696C95.8655 115.665 95.8183 115.633 95.7552 115.602L89.5386 112.022L78.81 105.866L75.7804 104.123C72.6564 102.317 69.9585 99.491 67.7339 95.6596C65.4934 91.8282 64.373 88.1067 64.373 84.5265V61.7265C64.373 58.1307 65.4934 55.7125 67.7339 54.4406L68.4439 54.0951C70.5265 53.2472 72.9719 53.6241 75.7804 55.2414L78.81 56.9844L95.7552 66.7199C95.7552 66.7199 95.8655 66.7827 95.9286 66.8299C98.9895 68.6356 101.64 71.415 103.817 75.1836C106.058 79.015 107.178 82.7208 107.178 86.3166Z" fill="#D9D9D9" fill-opacity="0.5" stroke="#7C7EFF" stroke-opacity="0.5"/>
<path d="M78.8105 36.1786V48.929L68.4445 54.0951L67.7345 54.4406C65.4941 55.7125 64.3737 58.1307 64.3737 61.7265V71.7918L53.6606 77.115L43.9099 81.967C46.1346 80.6951 47.255 78.2769 47.255 74.6968V51.8811C47.255 48.3009 46.1346 44.5951 43.9099 40.748C41.7168 36.9951 39.0819 34.2001 36.021 32.3943C35.9579 32.3472 35.9104 32.3158 35.8473 32.2844L15.8728 20.8216C13.0644 19.2042 10.6032 18.8274 8.52051 19.6753L39.3661 4.31823C41.6065 3.04633 44.2886 3.31328 47.4284 5.11906L67.4029 16.5819C70.5426 18.3877 73.225 21.2141 75.4655 25.0455C77.6901 28.8926 78.8105 32.5984 78.8105 36.1786Z" stroke="#7C7EFF" stroke-opacity="0.5"/>
<path d="M138.734 70.6139V93.414C138.734 96.9941 137.613 99.428 135.373 100.7L134.679 101.045L113.568 111.55L103.817 116.402C106.058 115.13 107.178 112.697 107.178 109.116V86.3164C107.178 82.7206 106.058 79.0148 103.817 75.1834C101.64 71.4148 98.9895 68.6354 95.9286 66.8297C95.8655 66.7825 95.8183 66.7511 95.7552 66.7197L78.81 56.9842L75.7804 55.2412C72.9719 53.6239 70.5265 53.247 68.4438 54.0949L78.81 48.9288L99.2894 38.7379C101.514 37.466 104.212 37.733 107.336 39.5387L127.311 51.0173C130.451 52.823 133.148 55.6338 135.373 59.4809C137.613 63.3123 138.734 67.0181 138.734 70.6139Z" stroke="#7C7EFF" stroke-opacity="0.5"/>
<path d="M138.734 139.03V161.846C138.734 165.426 137.613 167.86 135.373 169.116L134.663 169.461L103.817 184.818C106.058 183.562 107.178 181.128 107.178 177.548V154.732C107.178 151.152 106.058 147.446 103.817 143.599C101.64 139.846 98.9895 137.051 95.9286 135.261C95.8655 135.214 95.8183 135.183 95.7552 135.151L78.81 125.416L75.7804 123.673C72.9719 122.055 70.5265 121.679 68.4438 122.527L78.81 117.36L89.5386 112.022L95.7552 115.602C95.7552 115.602 95.8655 115.665 95.9286 115.696C98.9895 117.408 101.64 117.627 103.817 116.403L113.568 111.551L127.311 119.449C130.451 121.239 133.148 124.065 135.373 127.897C137.613 131.744 138.734 135.45 138.734 139.03Z" stroke="#7C7EFF" stroke-opacity="0.5"/>
<path d="M78.8105 105.866V117.36L68.4445 122.527L67.7345 122.872C65.4941 124.128 64.3737 126.562 64.3737 130.142V140.223L43.9099 150.398C46.1346 149.127 47.255 146.708 47.255 143.113V120.313C47.255 116.717 46.1346 113.011 43.9099 109.179C41.7168 105.427 39.0819 102.632 36.021 100.826C35.9579 100.779 35.9104 100.747 35.8473 100.716L15.8728 89.2373C13.0644 87.62 10.6032 87.2431 8.52051 88.091L29.6153 77.5861L35.8473 81.1662C35.8473 81.1662 35.9579 81.229 36.021 81.2604C39.0819 82.9877 41.7168 83.2076 43.9099 81.9671L53.6606 77.115L64.3737 83.2704V84.5266C64.3737 88.1067 65.4941 91.8282 67.7345 95.6596C69.9592 99.491 72.657 102.317 75.781 104.123L78.8105 105.866Z" stroke="#7C7EFF" stroke-opacity="0.5"/>
</svg>
