<svg width="144" height="176" viewBox="0 0 144 176" fill="none" xmlns="http://www.w3.org/2000/svg">
<path d="M138.232 106.623L78.1034 154.579L44.615 171.34L68.4252 152.35L104.743 123.385C106.803 121.793 107.205 119.01 105.932 115.054C104.643 111.099 102.416 108.199 99.2513 106.372L70.9369 89.9953L104.425 73.2334L132.74 89.6098C135.904 91.4368 138.131 94.3366 139.421 98.2924C140.693 102.248 140.291 105.031 138.232 106.623Z" stroke="#7C7EFF" stroke-opacity="0.5"/>
<path d="M78.1034 154.579C77.5843 154.981 77.0317 155.266 76.429 155.417L78.1034 154.579Z" stroke="#7C7EFF" stroke-opacity="0.5"/>
<path d="M104.743 123.385L68.4249 152.35L44.6148 171.34C43.2753 172.396 41.6344 172.631 39.6921 172.061C37.733 171.491 35.8576 170.2 34.0158 168.155C32.1907 166.128 30.7674 163.798 29.7293 161.166C28.6911 158.535 28.2891 156.104 28.5403 153.875L34.384 110.864L11.7292 97.7728C8.79896 96.0799 6.63898 93.3142 5.24921 89.5092C3.8427 85.6875 3.99333 82.8715 5.70124 81.0612L60.3375 22.3778C60.6389 22.0593 60.957 21.8079 61.3086 21.59L61.426 21.5229L61.9282 21.2883C62.8324 20.886 63.8874 20.8189 65.093 21.0368C67.0353 21.3888 69.0444 22.5789 71.1207 24.6239C72.0249 25.5123 72.8121 26.4509 73.4986 27.4567C74.4028 28.7473 75.1395 30.1553 75.6921 31.6639C76.6632 34.329 77.0314 36.7763 76.7803 39.0224L70.9365 89.9953L99.2511 106.372C102.416 108.199 104.643 111.099 105.932 115.054C107.205 119.01 106.803 121.793 104.743 123.385Z" fill="#D9D9D9" fill-opacity="0.5" stroke="#7C7EFF" stroke-opacity="0.5"/>
<path d="M110.269 22.2604L104.425 73.2334L70.9366 89.9953L76.7803 39.0223C77.0315 36.7763 76.6631 34.329 75.6919 31.6639C75.1394 30.1553 74.4026 28.7473 73.4985 27.4566C72.8119 26.4509 72.025 25.5123 71.1208 24.6239C69.0445 22.5789 67.0352 21.3888 65.0929 21.0368C63.8873 20.8189 62.8324 20.886 61.9282 21.2883L94.9812 4.72754C96.0026 4.15764 97.1915 4.00678 98.5812 4.27497C100.524 4.62697 102.533 5.81707 104.609 7.86202C106.669 9.89021 108.192 12.2369 109.18 14.902C110.151 17.5671 110.52 20.0143 110.269 22.2604Z" stroke="#7C7EFF" stroke-opacity="0.5"/>
<path d="M95.1654 4.62695L94.9812 4.72752" stroke="#7C7EFF" stroke-opacity="0.5"/>
</svg>
