<svg width="95" height="160" viewBox="0 0 95 160" fill="none" xmlns="http://www.w3.org/2000/svg">
<path d="M63.9949 128.152C63.9949 134.386 62.8798 138.938 60.6632 141.821C59.8922 142.841 58.9697 143.641 57.9233 144.248L57.0423 144.69C52.4024 146.703 46.6611 146.303 39.8184 143.49V151.862C39.8184 154.028 39.1849 155.462 37.9045 156.193C36.6378 156.91 35.0682 156.731 33.1958 155.655C31.3096 154.566 29.7401 152.924 28.4735 150.731C27.2068 148.538 26.5733 146.359 26.5733 144.207V135.448C21.603 131.31 17.2385 126.565 13.4798 121.214C9.73487 115.876 6.6923 109.669 4.37926 102.621C3.60824 100.4 3.58064 98.5102 4.29658 96.9654C4.62701 96.2619 5.06755 95.7378 5.63204 95.393L6.07271 95.1723C6.66473 94.924 7.36695 94.8413 8.17927 94.924C9.73507 95.0619 11.3322 96.0137 12.9843 97.793C14.6503 99.5861 15.9169 101.683 16.7981 104.096C18.6706 108.993 21.0523 113.255 23.9161 116.883C26.7936 120.51 30.3183 123.531 34.5175 125.958C39.0472 128.579 42.8749 129.627 46.0278 129.09C49.1669 128.565 50.7501 125.821 50.7501 120.883C50.7501 120.11 50.7088 119.338 50.64 118.565C50.282 114.952 49.0981 111.503 47.1017 108.207C44.9677 104.662 40.3414 99.4206 33.2096 92.4826C32.2596 91.5447 31.2546 90.5792 30.2082 89.5861C28.6662 88.124 27.1927 86.6895 25.8022 85.2964C18.6703 78.124 13.6174 71.6826 10.6711 65.9999C7.13264 59.1999 5.37052 52.3723 5.37052 45.5171C5.37052 37.2688 7.68363 32.193 12.3235 30.3033C16.9633 28.4275 21.7132 28.5654 26.5733 30.7447V22.3585C26.5733 20.2068 27.2068 18.7723 28.4735 18.0413L28.859 17.8482C30.0568 17.3516 31.5023 17.5999 33.1958 18.5792C33.5675 18.7999 33.9256 19.0344 34.2698 19.3102C34.6691 19.5861 35.0543 19.9171 35.4261 20.2895C36.3485 21.1723 37.1748 22.2482 37.9045 23.5033C39.1849 25.6964 39.8184 27.8757 39.8184 30.0275V38.3999C42.4894 40.4275 44.9261 42.6619 47.1565 45.0757C48.4232 46.455 49.6211 47.8895 50.7501 49.393C52.8291 52.1792 54.6603 55.0619 56.2436 58.055C57.0146 59.4895 57.7169 60.9654 58.364 62.455C59.3553 64.6895 59.548 66.6344 58.9422 68.3171C58.6117 69.2275 58.1024 69.8619 57.4003 70.2068L57.2349 70.2895C56.6704 70.5378 55.9958 70.6206 55.211 70.5378C53.669 70.3999 52.0719 69.5171 50.4197 67.8619C48.7538 66.193 47.2116 64.0688 45.7797 61.4619C44.3478 58.855 42.6545 56.5102 40.7269 54.4412C39.9284 53.5861 39.0611 52.7723 38.0974 51.9999C36.7343 50.8688 35.2059 49.8344 33.5262 48.855C28.6661 46.0413 24.9625 45.1447 22.4291 46.1516C19.882 47.1585 18.6152 49.4895 18.6152 53.1723C18.6152 57.3654 20.2677 61.6275 23.5858 65.9447C26.9039 70.2757 32.6452 76.1378 40.8097 83.5309C48.4235 90.4688 54.1923 97.8344 58.1162 105.627C59.08 107.545 59.9335 109.434 60.6494 111.31C62.8798 117.09 63.9949 122.703 63.9949 128.152Z" fill="#D9D9D9" fill-opacity="0.5" stroke="#7C7EFF" stroke-opacity="0.5"/>
<path d="M67.3548 16.2343V24.6067L52.6226 31.986L47.1981 34.7032L39.8186 38.3998V30.0274C39.8186 27.8757 39.1851 25.6963 37.9046 23.5032C37.1749 22.2481 36.3487 21.1722 35.4262 20.2895C35.0545 19.917 34.6693 19.586 34.27 19.3101C33.9258 19.0343 33.5677 18.7998 33.196 18.5791C31.5025 17.5998 30.057 17.3515 28.8591 17.8481L56.0099 4.24814C57.2765 3.51711 58.846 3.69642 60.7322 4.78607C62.6046 5.87573 64.1742 7.51709 65.4409 9.7102C66.7213 11.9033 67.3548 14.0826 67.3548 16.2343Z" stroke="#7C7EFF" stroke-opacity="0.5"/>
<path d="M91.5312 114.358C91.5312 123.379 89.2046 128.882 84.5786 130.896L67.2306 139.586L61.7096 142.359H61.6957L57.9233 144.248C58.9697 143.641 59.892 142.841 60.6631 141.821C62.8797 138.938 63.9949 134.386 63.9949 128.152C63.9949 122.703 62.8797 117.089 60.6493 111.31C59.9333 109.434 59.08 107.545 58.1162 105.627C54.1923 97.8343 48.4233 90.4688 40.8096 83.5308C32.6451 76.1377 26.9038 70.2755 23.5857 65.9445C20.2675 61.6273 18.6152 57.3653 18.6152 53.1722C18.6152 49.4895 19.8819 47.1583 22.429 46.1514C24.9623 45.1445 28.6661 46.0412 33.5262 48.855C35.206 49.8343 36.7344 50.8686 38.0974 51.9997C39.0612 52.7721 39.9284 53.586 40.727 54.4412C42.6545 56.5101 44.3478 58.8548 45.7797 61.4617C47.2116 64.0686 48.7538 66.1929 50.4197 67.8619C52.0719 69.5171 53.669 70.3998 55.211 70.5377C55.9958 70.6205 56.6704 70.5376 57.2349 70.2893L57.4003 70.2066L64.8212 66.4962C65.9364 67.5445 67.1204 68.6205 68.3458 69.7377C75.9596 76.6757 81.7286 84.0412 85.6525 91.8343C89.5764 99.6136 91.5312 107.131 91.5312 114.358Z" stroke="#7C7EFF" stroke-opacity="0.5"/>
<path d="M67.2301 139.586C66.9823 140.924 66.3903 141.862 65.4403 142.4L37.9041 156.193C39.1845 155.462 39.818 154.028 39.818 151.862V143.49C46.6607 146.303 52.402 146.703 57.0419 144.69L61.6954 142.359H61.7091L67.2301 139.586Z" stroke="#7C7EFF" stroke-opacity="0.5"/>
<path d="M86.4786 54.5239C86.1895 55.3653 85.7076 55.9722 85.088 56.3446L84.8679 56.455L64.8214 66.4963L57.4005 70.2067C58.1027 69.8619 58.6119 69.2274 58.9424 68.317C59.5482 66.6343 59.3556 64.6894 58.3643 62.455C57.7172 60.9653 57.0148 59.4895 56.2438 58.055C54.6605 55.0619 52.8293 52.1791 50.7504 49.3929C49.6214 47.8894 48.4234 46.455 47.1567 45.0757C44.9263 42.6619 42.4896 40.4274 39.8186 38.3998L47.1982 34.7034L52.6227 31.986L67.3548 24.6067C71.5403 27.7929 75.1888 31.4619 78.2866 35.5998C81.3706 39.7377 83.9179 44.0826 85.9005 48.6619C86.8918 50.8963 87.0844 52.8412 86.4786 54.5239Z" stroke="#7C7EFF" stroke-opacity="0.5"/>
<path d="M26.5737 23.1724V30.7448C21.7136 28.5655 16.9639 28.4275 12.324 30.3034L26.5737 23.1724Z" stroke="#7C7EFF" stroke-opacity="0.5"/>
<path d="M50.7495 120.883C50.7495 125.821 49.1663 128.565 46.0271 129.089C42.8742 129.627 39.0466 128.579 34.5169 125.959C30.3176 123.531 26.793 120.51 23.9154 116.883C21.0516 113.255 18.6699 108.993 16.7974 104.096C15.9163 101.683 14.6496 99.586 12.9836 97.7929C11.3315 96.0136 9.73438 95.0619 8.17858 94.924C7.36627 94.8412 6.66405 94.924 6.07202 95.1722L25.8015 85.2964C27.1921 86.6895 28.6656 88.124 30.2076 89.586C31.254 90.5791 32.2589 91.5448 33.2089 92.4827C40.3408 99.4207 44.967 104.662 47.1011 108.207C49.0974 111.503 50.2812 114.952 50.6392 118.565C50.708 119.338 50.7495 120.11 50.7495 120.883Z" stroke="#7C7EFF" stroke-opacity="0.5"/>
</svg>
