<svg width="138" height="174" viewBox="0 0 138 174" fill="none" xmlns="http://www.w3.org/2000/svg">
<path d="M79.2151 167.73C80.4001 167.235 81.5401 166.665 82.6501 166.02L79.2151 167.73Z" stroke="#7C7EFF" stroke-opacity="0.5"/>
<path d="M101.385 75.7049C99.8852 72.4349 97.9202 69.5699 95.5201 67.1099L94.17 65.7599L79.8602 51.3299L57.9301 29.2349C56.4751 27.7949 55.0051 26.6399 53.5501 25.7999C52.0802 24.9599 50.625 24.4199 49.155 24.1649L33.435 21.8549L11.5801 18.6449C9.97513 18.4349 8.58004 18.6449 7.36504 19.2449C6.76504 19.5449 6.21007 19.9499 5.70007 20.4599C4.18507 21.9899 3.43506 24.2399 3.43506 27.2399V61.1999C3.43506 77.9849 7.60521 96.0599 15.9601 115.44C24.3151 134.82 35.5351 151.275 49.6351 164.805C50.2651 165.405 50.8801 165.945 51.5101 166.425C52.1401 166.905 52.8152 167.355 53.5501 167.775C54.2851 168.195 54.9602 168.525 55.5901 168.78C56.2052 169.02 56.8352 169.2 57.4651 169.32C65.6402 170.91 72.8551 170.4 79.0951 167.79L79.2151 167.73L82.6502 166.02C85.7551 164.205 88.5901 161.82 91.1402 158.835C92.1451 157.65 93.105 156.42 93.99 155.145C100.44 145.845 103.665 133.815 103.665 119.07V85.1099C103.665 82.1099 102.9 78.9749 101.385 75.7049ZM64.38 95.8199C64.38 95.8199 64.3052 95.9249 64.2752 95.9699C63.0752 97.5599 61.4252 98.3399 59.3401 98.3399L62.31 118.92C62.52 120.12 62.3102 120.975 61.6051 121.485C60.9301 121.995 60.1201 121.98 59.1901 121.425L55.575 119.34L47.9101 114.915C46.9651 114.375 46.1551 113.46 45.4801 112.17C44.8051 110.88 44.5651 109.755 44.7751 108.795L46.155 100.86L47.7451 91.6499C45.6601 89.2499 44.025 86.5499 42.825 83.5949C41.625 80.6249 41.0251 77.7599 41.0251 74.9999C41.0251 71.0399 42.24 68.3699 44.7 66.9749C47.145 65.5649 50.1002 65.8649 53.5501 67.8599C56.9851 69.8399 59.9402 72.9599 62.4002 77.1899C63.5402 79.1549 64.4102 81.1049 65.0252 83.0099C65.7302 85.1999 66.075 87.3599 66.075 89.4599C66.075 92.1299 65.505 94.2599 64.38 95.8199Z" fill="#D9D9D9" fill-opacity="0.5" stroke="#7C7EFF" stroke-opacity="0.5"/>
<path d="M64.3799 95.8198C64.3799 95.8198 64.3051 95.9248 64.2751 95.9698C63.0751 97.5598 61.4251 98.3398 59.3401 98.3398L64.3799 95.8198Z" stroke="#7C7EFF" stroke-opacity="0.5"/>
<path d="M64.3799 95.8198L59.3399 98.3398L62.3099 118.92C62.5199 120.12 62.3099 120.975 61.6049 121.485C60.9299 121.995 60.1199 121.98 59.1899 121.425L55.5749 119.34L47.9099 114.915C46.9649 114.375 46.1549 113.46 45.4799 112.17C44.8049 110.88 44.5649 109.755 44.7749 108.795L46.1547 100.86L47.7449 91.6498L65.0249 83.0098C65.7299 85.1998 66.0749 87.3598 66.0749 89.4598C66.0749 92.1298 65.5049 94.2598 64.3799 95.8198Z" stroke="#7C7EFF" stroke-opacity="0.5"/>
<path d="M65.0251 83.0098L47.7451 91.6498C45.6601 89.2498 44.025 86.5498 42.825 83.5948C41.625 80.6248 41.0251 77.7598 41.0251 74.9998C41.0251 71.0398 42.24 68.3698 44.7 66.9748C47.145 65.5648 50.1001 65.8648 53.5501 67.8598C56.9851 69.8398 59.9401 72.9598 62.4001 77.1898C63.5401 79.1548 64.4101 81.1048 65.0251 83.0098Z" stroke="#7C7EFF" stroke-opacity="0.5"/>
<path d="M133.665 70.1099V104.07C133.665 120.855 129.48 134.1 121.14 143.835C117.855 147.66 114.12 150.525 109.935 152.415L109.845 152.46L82.6503 166.02C85.7553 164.205 88.5904 161.82 91.1404 158.835C92.1454 157.65 93.1053 156.42 93.9903 155.145C100.44 145.845 103.665 133.815 103.665 119.07V85.1099C103.665 82.1099 102.9 78.9749 101.385 75.7049C99.8853 72.4349 97.9203 69.5699 95.5203 67.1099L94.1703 65.7599L79.8603 51.3299L57.9303 29.2349C56.4753 27.7949 55.0053 26.6399 53.5503 25.7999C52.0803 24.9599 50.6251 24.4199 49.1551 24.1649L33.4353 21.8549L11.5803 18.6449C9.97531 18.4349 8.58023 18.6449 7.36523 19.2449L37.2453 4.30489L37.3653 4.24492C38.5803 3.64492 39.9753 3.43489 41.5803 3.64489L79.1551 9.16488C80.6251 9.41988 82.0803 9.95992 83.5503 10.7999C85.0053 11.6399 86.4753 12.7949 87.9303 14.2349L125.52 52.1099C127.92 54.5699 129.885 57.4349 131.385 60.7049C132.9 63.9749 133.665 67.1099 133.665 70.1099Z" stroke="#7C7EFF" stroke-opacity="0.5"/>
</svg>
