<svg width="36" height="36" viewBox="0 0 36 36" fill="none" xmlns="http://www.w3.org/2000/svg">
<path d="M30.3467 19.1137V7.76743C30.3467 6.38366 28.7464 5.61397 27.6654 6.47779C21.6723 11.2667 13.0842 11.2283 7.0583 6.48068C5.96409 5.6186 4.33521 6.38027 4.33521 7.77328V18.1348V26.917C4.33521 28.324 5.96893 29.1053 7.08915 28.254C13.1422 23.6543 21.6143 23.6167 27.6359 28.2575C28.7426 29.1105 30.3467 28.3215 30.3467 26.9243V19.1137Z" fill="#7C7EFF"/>
<path d="M34.3497 2.12109L33.2882 2.35059L33.464 1.44141L34.797 0.892578L34.3497 2.12109Z" fill="white" stroke="white"/>
<path d="M1.37476 2.125L2.31714 2.34473L2.17847 1.43652L0.89624 0.90918L1.37476 2.125Z" fill="white" stroke="white"/>
<path d="M1.38696 33.6557L2.50513 33.2758L2.21118 34.3589L0.895752 34.9008L1.38696 33.6557Z" fill="white" stroke="white"/>
<path d="M34.3447 33.8104L33.2266 33.4305L33.5195 34.5125L34.8359 35.0545L34.3447 33.8104Z" fill="white" stroke="white"/>
<path opacity="0.7" d="M14.88 21V13.19H17.905C18.8217 13.19 19.5367 13.41 20.05 13.85C20.5633 14.29 20.82 14.8987 20.82 15.676C20.82 16.1967 20.7027 16.6477 20.468 17.029C20.2333 17.403 19.8997 17.689 19.467 17.887C19.0343 18.085 18.5137 18.184 17.905 18.184H16.31V21H14.88ZM16.31 16.941H17.839C18.323 16.941 18.6933 16.8347 18.95 16.622C19.214 16.4093 19.346 16.094 19.346 15.676C19.346 15.2653 19.214 14.9573 18.95 14.752C18.6933 14.5393 18.323 14.433 17.839 14.433H16.31V16.941Z" fill="white"/>
</svg>
